<?xml version="1.0" standalone="no"?>
<!DOCTYPE svg PUBLIC "-//W3C//DTD SVG 20010904//EN"
 "http://www.w3.org/TR/2001/REC-SVG-20010904/DTD/svg10.dtd">
<svg version="1.0" xmlns="http://www.w3.org/2000/svg"
 width="512.000000pt" height="512.000000pt" viewBox="0 0 512.000000 512.000000"
 preserveAspectRatio="xMidYMid meet">

<g transform="translate(0.000000,512.000000) scale(0.100000,-0.100000)"
fill="#000000" stroke="none">
<path d="M2545 5095 c-340 -74 -596 -193 -842 -391 -710 -575 -1043 -1737
-985 -3436 7 -200 16 -391 19 -426 l6 -62 210 0 209 0 -6 42 c-3 24 -12 122
-21 218 -102 1206 29 2048 406 2616 94 141 284 333 419 423 223 148 473 235
785 274 l99 12 14 77 14 77 -51 50 c-60 61 -116 169 -136 266 -8 39 -15 118
-15 178 0 59 -3 107 -7 106 -5 0 -57 -11 -118 -24z"/>
<path d="M3110 4907 c0 -4 -15 -58 -34 -120 -47 -154 -92 -361 -120 -551 -18
-124 -28 -162 -42 -173 -26 -19 -61 -16 -85 8 -19 19 -20 28 -14 91 l7 70 -58
-7 c-878 -103 -1369 -698 -1498 -1815 -9 -74 -21 -242 -28 -374 -13 -276 -1
-692 32 -1036 11 -113 20 -208 20 -212 0 -9 3040 -11 3040 -2 0 3 -9 42 -21
87 -44 175 -133 347 -250 489 -55 67 -89 94 -215 178 -403 266 -564 479 -568
750 -1 74 -4 97 -16 102 -8 4 -59 7 -114 7 -90 1 -103 3 -158 33 -70 37 -156
127 -192 200 -54 110 -68 266 -29 311 20 21 76 23 93 2 6 -8 13 -49 15 -92 5
-132 64 -242 158 -297 41 -24 48 -25 412 -37 274 -8 376 -15 391 -25 12 -7 29
-34 38 -60 50 -149 178 -256 321 -271 71 -7 170 19 226 59 l41 30 -51 52 c-54
54 -61 77 -35 114 30 44 64 30 183 -73 61 -52 112 -95 114 -95 10 0 119 243
132 295 18 70 19 182 4 257 -16 75 -70 185 -121 243 -23 27 -230 213 -458 413
-228 201 -428 377 -444 391 l-29 26 7 -37 c12 -66 -31 -110 -85 -88 -33 14
-31 8 -63 171 -60 298 -192 596 -370 832 -63 83 -135 166 -136 154z m580
-1507 c11 -11 20 -30 20 -42 0 -29 -38 -68 -67 -68 -30 0 -63 34 -63 65 0 14
9 34 20 45 11 11 31 20 45 20 14 0 34 -9 45 -20z"/>
<path d="M545 641 c-97 -24 -190 -105 -224 -196 -19 -49 -21 -78 -21 -250 l0
-195 2256 0 2256 0 -4 198 c-4 156 -8 207 -22 244 -25 66 -95 141 -164 175
l-57 28 -1995 2 c-1097 0 -2008 -2 -2025 -6z"/>
</g>
</svg>
